# xmcd
#
# Track frame offsets: 
#        150
#        16412
#        30895
#        48385
#        66013
#        81791
#        98234
#        113226
#        130327
#        142276
#        158616
#        177036
#        194378
#        207331
#        229167
#        243123
#        255453
#        275917
#        295082
#
# Disc length: 4164 seconds
#
# Revision: 0
# Processed by: cddbd v1.5.2PL0 Copyright (c) Steve Scherf et al.
# Submitted via: ExactAudioCopy v1.1
#
DISCID=0a104213
DTITLE=Various Artist - 1000 Klassiekers Radio 2 Vol. 10 - CD 3
DYEAR=2018
DGENRE=Easy Listening
TTITLE0=Elvis Presley - Always On My Mind
TTITLE1=Katie Melua - Nine Million Bicycles
TTITLE2=René Froger - Alles Kan Een Mens Gelukkig Maken
TTITLE3=Art Garfunkel - Bright Eyes
TTITLE4=Alicia Keys - Fallin'
TTITLE5=Christoff - Sweet Caroline
TTITLE6=Slongs Dievanongs - Lacht Nor Mij
TTITLE7=Will Smith - Gettin' Jiggy Wit It
TTITLE8=Dolly Parton - Jolene
TTITLE9=De Kreuners - Nee Oh Nee
TTITLE10=Natalie Imbruglia - Torn
TTITLE11=Pharrell Williams - Happy
TTITLE12=Bart Kaëll - De Marie Louise
TTITLE13=Eric Carmen - All By Myself
TTITLE14=The Hues Corporation - Rock The Boat
TTITLE15=Johnny Cash and June Carter Cash - Jackson
TTITLE16=Ten Sharp - You
TTITLE17=Santana - Oye Como Va
TTITLE18=Amanda Lear - Follow Me
EXTD=
EXTT0=
EXTT1=
EXTT2=
EXTT3=
EXTT4=
EXTT5=
EXTT6=
EXTT7=
EXTT8=
EXTT9=
EXTT10=
EXTT11=
EXTT12=
EXTT13=
EXTT14=
EXTT15=
EXTT16=
EXTT17=
EXTT18=
PLAYORDER=
